<svg xmlns="http://www.w3.org/2000/svg" width="100%" height="100%" viewBox="0 0 18 18" fit="" fill="#00a1de"
				preserveAspectRatio="xMidYMid meet" focusable="false" data-di-rand="1639344497462">
				<path fill-rule="evenodd"
					d="M9.53 18H18v-1.637H9.53V18zm-.926-8.036l-5.05 5.685-.77-.603L5.186 9.56l.168-.625a147.267 147.267 0 0 1-3.848-1.291C-.087 7.073 0 6.332.002 6.31l.062-3.706 1.391-.096.984 3.484c.838.159 2.121.423 3.511.72l.169-.625.66-5.95L7.75 0l1.526 7.454c.9.212 1.726.413 2.378.582 2.6.7 3.363 1.345 3.131 2.235h-.002c-.236.889-1.22 1.069-3.825.37-.653-.18-1.47-.413-2.353-.677zm3.855 1.683a.81.81 0 1 1 0 1.62.81.81 0 0 1 0-1.62z">
				</path>
			</svg>